<?xml version="1.0" encoding="utf-8"?>
<!-- Generator: Adobe Illustrator 23.0.2, SVG Export Plug-In . SVG Version: 6.00 Build 0)  -->
<svg version="1.1" id="Layer_1" xmlns="http://www.w3.org/2000/svg" xmlns:xlink="http://www.w3.org/1999/xlink" x="0px" y="0px"
	 viewBox="0 0 96 88.8" style="enable-background:new 0 0 96 88.8;" xml:space="preserve">
<title>Artboard 59</title>
<path d="M74.2,36.4c-0.2-2.1-1.9-3.7-4-3.7H56v-12c0-4.4-3.6-8-8-8s-8,3.6-8,8v12H25.8c-2.1,0-3.8,1.6-4,3.7l-0.7,8.3h53.7
	L74.2,36.4z"/>
<path d="M80,74.4l-4.6-25.7H20.6L16,74.4c-0.1,0.6,0.1,1.2,0.4,1.6c0.4,0.5,1,0.7,1.6,0.7h6.2l5.5-19.5c0.4-1,1.5-1.6,2.5-1.2
	c0.9,0.3,1.5,1.3,1.3,2.2l-5.2,18.5H78c0.6,0,1.2-0.3,1.5-0.7C79.9,75.5,80.1,74.9,80,74.4z"/>
</svg>
