<?xml version="1.0" encoding="utf-8"?>
<!-- Generator: Adobe Illustrator 23.0.2, SVG Export Plug-In . SVG Version: 6.00 Build 0)  -->
<svg version="1.1" id="Layer_1" xmlns:sketch="http://www.bohemiancoding.com/sketch/ns"
	 xmlns="http://www.w3.org/2000/svg" xmlns:xlink="http://www.w3.org/1999/xlink" x="0px" y="0px" viewBox="0 0 110 114.5"
	 style="enable-background:new 0 0 110 114.5;" xml:space="preserve">
<style type="text/css">
	.st0{fill-rule:evenodd;clip-rule:evenodd;}
</style>
<title>DISK</title>
<desc>Created with Sketch.</desc>
<g sketch:type="MSPage">
	<g sketch:type="MSArtboardGroup">
		<path sketch:type="MSShapeGroup" class="st0" d="M85.2,11H16c-2.8,0-5,2.2-5,5v79c0,2.8,2.2,5,5,5h79c2.8,0,5-2.2,5-5V43.1
			l-0.2,0.4L75.5,11H85.2z M26,22c0-2.8,2.2-5,5-5h36c2.8,0,5,2.2,5,5v25c0,2.8-2.2,5-5,5H31c-2.8,0-5-2.2-5-5V22z M55,23
			c0-1.1,0.9-2,2-2h9c1.1,0,2,0.9,2,2v23c0,1.1-0.9,2-2,2h-9c-1.1,0-2-0.9-2-2V23z"/>
	</g>
</g>
</svg>
